<mxfile host="app.diagrams.net" modified="2022-06-27T23:59:14.024Z" agent="5.0 (Windows NT 10.0; Win64; x64) AppleWebKit/537.36 (KHTML, like Gecko) Chrome/102.0.0.0 Safari/537.36" etag="YtPly8KfvogRyX5B4h34" version="20.0.3" type="github">
  <diagram id="KJ87jfpzBBWs1cjpJGXJ" name="Page-1">
    <mxGraphModel dx="1021" dy="512" grid="1" gridSize="10" guides="1" tooltips="1" connect="1" arrows="1" fold="1" page="1" pageScale="1" pageWidth="850" pageHeight="1100" math="0" shadow="0">
      <root>
        <mxCell id="0" />
        <mxCell id="1" parent="0" />
        <mxCell id="3yrh_qhIR_IRZOxZDyMh-1" value="2.0&lt;br&gt;Login" style="ellipse;whiteSpace=wrap;html=1;" vertex="1" parent="1">
          <mxGeometry x="450" y="390" width="190" height="80" as="geometry" />
        </mxCell>
        <mxCell id="3yrh_qhIR_IRZOxZDyMh-2" value="ADMIN" style="rounded=0;whiteSpace=wrap;html=1;" vertex="1" parent="1">
          <mxGeometry x="180" y="400" width="120" height="60" as="geometry" />
        </mxCell>
        <mxCell id="3yrh_qhIR_IRZOxZDyMh-3" value="" style="endArrow=classic;html=1;rounded=0;exitX=0.75;exitY=0;exitDx=0;exitDy=0;entryX=0.221;entryY=0.088;entryDx=0;entryDy=0;entryPerimeter=0;" edge="1" parent="1" source="3yrh_qhIR_IRZOxZDyMh-2" target="3yrh_qhIR_IRZOxZDyMh-1">
          <mxGeometry width="50" height="50" relative="1" as="geometry">
            <mxPoint x="530" y="470" as="sourcePoint" />
            <mxPoint x="580" y="420" as="targetPoint" />
          </mxGeometry>
        </mxCell>
        <mxCell id="3yrh_qhIR_IRZOxZDyMh-4" value="request login" style="text;html=1;strokeColor=none;fillColor=none;align=center;verticalAlign=middle;whiteSpace=wrap;rounded=0;" vertex="1" parent="1">
          <mxGeometry x="290" y="370" width="170" height="30" as="geometry" />
        </mxCell>
        <mxCell id="3yrh_qhIR_IRZOxZDyMh-5" value="" style="endArrow=classic;html=1;rounded=0;" edge="1" parent="1" source="3yrh_qhIR_IRZOxZDyMh-1">
          <mxGeometry width="50" height="50" relative="1" as="geometry">
            <mxPoint x="570" y="440" as="sourcePoint" />
            <mxPoint x="770" y="430" as="targetPoint" />
          </mxGeometry>
        </mxCell>
        <mxCell id="3yrh_qhIR_IRZOxZDyMh-6" value="check" style="text;html=1;strokeColor=none;fillColor=none;align=center;verticalAlign=middle;whiteSpace=wrap;rounded=0;" vertex="1" parent="1">
          <mxGeometry x="610" y="400" width="170" height="30" as="geometry" />
        </mxCell>
        <mxCell id="3yrh_qhIR_IRZOxZDyMh-7" value="" style="endArrow=classic;html=1;rounded=0;exitX=0.5;exitY=0;exitDx=0;exitDy=0;" edge="1" parent="1" target="3yrh_qhIR_IRZOxZDyMh-1">
          <mxGeometry width="50" height="50" relative="1" as="geometry">
            <mxPoint x="830" y="400" as="sourcePoint" />
            <mxPoint x="580" y="430" as="targetPoint" />
            <Array as="points">
              <mxPoint x="830" y="360" />
              <mxPoint x="630" y="360" />
            </Array>
          </mxGeometry>
        </mxCell>
        <mxCell id="3yrh_qhIR_IRZOxZDyMh-8" value="reply" style="text;html=1;strokeColor=none;fillColor=none;align=center;verticalAlign=middle;whiteSpace=wrap;rounded=0;" vertex="1" parent="1">
          <mxGeometry x="650" y="320" width="170" height="30" as="geometry" />
        </mxCell>
        <mxCell id="3yrh_qhIR_IRZOxZDyMh-9" value="" style="endArrow=classic;html=1;rounded=0;" edge="1" parent="1" source="3yrh_qhIR_IRZOxZDyMh-1" target="3yrh_qhIR_IRZOxZDyMh-2">
          <mxGeometry width="50" height="50" relative="1" as="geometry">
            <mxPoint x="530" y="480" as="sourcePoint" />
            <mxPoint x="580" y="430" as="targetPoint" />
          </mxGeometry>
        </mxCell>
        <mxCell id="3yrh_qhIR_IRZOxZDyMh-10" value="info login" style="text;html=1;strokeColor=none;fillColor=none;align=center;verticalAlign=middle;whiteSpace=wrap;rounded=0;" vertex="1" parent="1">
          <mxGeometry x="290" y="440" width="170" height="30" as="geometry" />
        </mxCell>
        <mxCell id="3yrh_qhIR_IRZOxZDyMh-11" value="2.1&lt;br&gt;tambah data sepatu" style="ellipse;whiteSpace=wrap;html=1;" vertex="1" parent="1">
          <mxGeometry x="450" y="530" width="190" height="80" as="geometry" />
        </mxCell>
        <mxCell id="3yrh_qhIR_IRZOxZDyMh-12" value="" style="endArrow=none;html=1;rounded=0;" edge="1" parent="1">
          <mxGeometry width="50" height="50" relative="1" as="geometry">
            <mxPoint x="800" y="400" as="sourcePoint" />
            <mxPoint x="900" y="400" as="targetPoint" />
          </mxGeometry>
        </mxCell>
        <mxCell id="3yrh_qhIR_IRZOxZDyMh-13" value="" style="endArrow=none;html=1;rounded=0;" edge="1" parent="1">
          <mxGeometry width="50" height="50" relative="1" as="geometry">
            <mxPoint x="800" y="450" as="sourcePoint" />
            <mxPoint x="900" y="450" as="targetPoint" />
          </mxGeometry>
        </mxCell>
        <mxCell id="3yrh_qhIR_IRZOxZDyMh-14" value="admin" style="text;html=1;strokeColor=none;fillColor=none;align=center;verticalAlign=middle;whiteSpace=wrap;rounded=0;" vertex="1" parent="1">
          <mxGeometry x="760" y="410" width="170" height="30" as="geometry" />
        </mxCell>
        <mxCell id="3yrh_qhIR_IRZOxZDyMh-15" value="" style="endArrow=none;html=1;rounded=0;" edge="1" parent="1">
          <mxGeometry width="50" height="50" relative="1" as="geometry">
            <mxPoint x="780" y="550" as="sourcePoint" />
            <mxPoint x="880" y="550" as="targetPoint" />
          </mxGeometry>
        </mxCell>
        <mxCell id="3yrh_qhIR_IRZOxZDyMh-16" value="" style="endArrow=none;html=1;rounded=0;" edge="1" parent="1">
          <mxGeometry width="50" height="50" relative="1" as="geometry">
            <mxPoint x="780" y="600" as="sourcePoint" />
            <mxPoint x="880" y="600" as="targetPoint" />
          </mxGeometry>
        </mxCell>
        <mxCell id="3yrh_qhIR_IRZOxZDyMh-17" value="products" style="text;html=1;strokeColor=none;fillColor=none;align=center;verticalAlign=middle;whiteSpace=wrap;rounded=0;" vertex="1" parent="1">
          <mxGeometry x="745" y="560" width="170" height="30" as="geometry" />
        </mxCell>
        <mxCell id="3yrh_qhIR_IRZOxZDyMh-18" value="insert data" style="text;html=1;strokeColor=none;fillColor=none;align=center;verticalAlign=middle;whiteSpace=wrap;rounded=0;" vertex="1" parent="1">
          <mxGeometry x="600" y="530" width="170" height="30" as="geometry" />
        </mxCell>
        <mxCell id="3yrh_qhIR_IRZOxZDyMh-19" value="" style="endArrow=classic;html=1;rounded=0;entryX=0;entryY=0.25;entryDx=0;entryDy=0;" edge="1" parent="1" source="3yrh_qhIR_IRZOxZDyMh-11" target="3yrh_qhIR_IRZOxZDyMh-17">
          <mxGeometry width="50" height="50" relative="1" as="geometry">
            <mxPoint x="580" y="470" as="sourcePoint" />
            <mxPoint x="630" y="420" as="targetPoint" />
          </mxGeometry>
        </mxCell>
        <mxCell id="3yrh_qhIR_IRZOxZDyMh-20" value="" style="endArrow=classic;html=1;rounded=0;entryX=0.964;entryY=0.758;entryDx=0;entryDy=0;entryPerimeter=0;" edge="1" parent="1" target="3yrh_qhIR_IRZOxZDyMh-1">
          <mxGeometry width="50" height="50" relative="1" as="geometry">
            <mxPoint x="780" y="450" as="sourcePoint" />
            <mxPoint x="630" y="490" as="targetPoint" />
          </mxGeometry>
        </mxCell>
        <mxCell id="3yrh_qhIR_IRZOxZDyMh-21" value="reply" style="text;html=1;strokeColor=none;fillColor=none;align=center;verticalAlign=middle;whiteSpace=wrap;rounded=0;" vertex="1" parent="1">
          <mxGeometry x="610" y="450" width="170" height="30" as="geometry" />
        </mxCell>
        <mxCell id="3yrh_qhIR_IRZOxZDyMh-22" value="2.2&lt;br&gt;edit data sepatu" style="ellipse;whiteSpace=wrap;html=1;" vertex="1" parent="1">
          <mxGeometry x="450" y="670" width="190" height="80" as="geometry" />
        </mxCell>
        <mxCell id="3yrh_qhIR_IRZOxZDyMh-23" value="" style="endArrow=classic;html=1;rounded=0;" edge="1" parent="1" source="3yrh_qhIR_IRZOxZDyMh-1" target="3yrh_qhIR_IRZOxZDyMh-11">
          <mxGeometry width="50" height="50" relative="1" as="geometry">
            <mxPoint x="550" y="590" as="sourcePoint" />
            <mxPoint x="600" y="540" as="targetPoint" />
          </mxGeometry>
        </mxCell>
        <mxCell id="3yrh_qhIR_IRZOxZDyMh-24" value="" style="endArrow=classic;html=1;rounded=0;" edge="1" parent="1" source="3yrh_qhIR_IRZOxZDyMh-11" target="3yrh_qhIR_IRZOxZDyMh-22">
          <mxGeometry width="50" height="50" relative="1" as="geometry">
            <mxPoint x="555" y="480" as="sourcePoint" />
            <mxPoint x="555" y="540" as="targetPoint" />
          </mxGeometry>
        </mxCell>
        <mxCell id="3yrh_qhIR_IRZOxZDyMh-25" value="" style="endArrow=classic;html=1;rounded=0;entryX=0.964;entryY=0.758;entryDx=0;entryDy=0;entryPerimeter=0;" edge="1" parent="1">
          <mxGeometry width="50" height="50" relative="1" as="geometry">
            <mxPoint x="770" y="590" as="sourcePoint" />
            <mxPoint x="623.1599999999999" y="590.6399999999999" as="targetPoint" />
          </mxGeometry>
        </mxCell>
        <mxCell id="3yrh_qhIR_IRZOxZDyMh-26" value="reply" style="text;html=1;strokeColor=none;fillColor=none;align=center;verticalAlign=middle;whiteSpace=wrap;rounded=0;" vertex="1" parent="1">
          <mxGeometry x="600" y="590" width="170" height="30" as="geometry" />
        </mxCell>
        <mxCell id="3yrh_qhIR_IRZOxZDyMh-30" value="update data" style="text;html=1;strokeColor=none;fillColor=none;align=center;verticalAlign=middle;whiteSpace=wrap;rounded=0;" vertex="1" parent="1">
          <mxGeometry x="600" y="670" width="170" height="30" as="geometry" />
        </mxCell>
        <mxCell id="3yrh_qhIR_IRZOxZDyMh-31" value="" style="endArrow=classic;html=1;rounded=0;entryX=0;entryY=0.25;entryDx=0;entryDy=0;" edge="1" parent="1">
          <mxGeometry width="50" height="50" relative="1" as="geometry">
            <mxPoint x="639.9703264087743" y="709.0003123535917" as="sourcePoint" />
            <mxPoint x="745" y="707.5" as="targetPoint" />
          </mxGeometry>
        </mxCell>
        <mxCell id="3yrh_qhIR_IRZOxZDyMh-32" value="" style="endArrow=classic;html=1;rounded=0;entryX=0.964;entryY=0.758;entryDx=0;entryDy=0;entryPerimeter=0;" edge="1" parent="1">
          <mxGeometry width="50" height="50" relative="1" as="geometry">
            <mxPoint x="770" y="730" as="sourcePoint" />
            <mxPoint x="623.1599999999999" y="730.6399999999999" as="targetPoint" />
          </mxGeometry>
        </mxCell>
        <mxCell id="3yrh_qhIR_IRZOxZDyMh-33" value="reply" style="text;html=1;strokeColor=none;fillColor=none;align=center;verticalAlign=middle;whiteSpace=wrap;rounded=0;" vertex="1" parent="1">
          <mxGeometry x="600" y="735" width="170" height="30" as="geometry" />
        </mxCell>
        <mxCell id="3yrh_qhIR_IRZOxZDyMh-35" value="2.2&lt;br&gt;hapus data sepatu" style="ellipse;whiteSpace=wrap;html=1;" vertex="1" parent="1">
          <mxGeometry x="450" y="820" width="190" height="80" as="geometry" />
        </mxCell>
        <mxCell id="3yrh_qhIR_IRZOxZDyMh-38" value="" style="endArrow=none;html=1;rounded=0;" edge="1" parent="1">
          <mxGeometry width="50" height="50" relative="1" as="geometry">
            <mxPoint x="795" y="689.9999999999999" as="sourcePoint" />
            <mxPoint x="895" y="689.9999999999999" as="targetPoint" />
          </mxGeometry>
        </mxCell>
        <mxCell id="3yrh_qhIR_IRZOxZDyMh-39" value="" style="endArrow=none;html=1;rounded=0;" edge="1" parent="1">
          <mxGeometry width="50" height="50" relative="1" as="geometry">
            <mxPoint x="795" y="739.9999999999999" as="sourcePoint" />
            <mxPoint x="895" y="739.9999999999999" as="targetPoint" />
          </mxGeometry>
        </mxCell>
        <mxCell id="3yrh_qhIR_IRZOxZDyMh-40" value="" style="endArrow=none;html=1;rounded=0;" edge="1" parent="1">
          <mxGeometry width="50" height="50" relative="1" as="geometry">
            <mxPoint x="780" y="848.8199999999999" as="sourcePoint" />
            <mxPoint x="880" y="848.8199999999999" as="targetPoint" />
          </mxGeometry>
        </mxCell>
        <mxCell id="3yrh_qhIR_IRZOxZDyMh-41" value="" style="endArrow=none;html=1;rounded=0;" edge="1" parent="1">
          <mxGeometry width="50" height="50" relative="1" as="geometry">
            <mxPoint x="780" y="898.8199999999999" as="sourcePoint" />
            <mxPoint x="880" y="898.8199999999999" as="targetPoint" />
          </mxGeometry>
        </mxCell>
        <mxCell id="3yrh_qhIR_IRZOxZDyMh-42" value="delete data" style="text;html=1;strokeColor=none;fillColor=none;align=center;verticalAlign=middle;whiteSpace=wrap;rounded=0;" vertex="1" parent="1">
          <mxGeometry x="600" y="820" width="170" height="30" as="geometry" />
        </mxCell>
        <mxCell id="3yrh_qhIR_IRZOxZDyMh-43" value="" style="endArrow=classic;html=1;rounded=0;entryX=0;entryY=0.25;entryDx=0;entryDy=0;" edge="1" parent="1">
          <mxGeometry width="50" height="50" relative="1" as="geometry">
            <mxPoint x="639.9703264087746" y="859.0003123535917" as="sourcePoint" />
            <mxPoint x="745" y="857.5" as="targetPoint" />
          </mxGeometry>
        </mxCell>
        <mxCell id="3yrh_qhIR_IRZOxZDyMh-44" value="" style="endArrow=classic;html=1;rounded=0;entryX=0.964;entryY=0.758;entryDx=0;entryDy=0;entryPerimeter=0;" edge="1" parent="1">
          <mxGeometry width="50" height="50" relative="1" as="geometry">
            <mxPoint x="770" y="880" as="sourcePoint" />
            <mxPoint x="623.1599999999999" y="880.6399999999999" as="targetPoint" />
          </mxGeometry>
        </mxCell>
        <mxCell id="3yrh_qhIR_IRZOxZDyMh-45" value="reply" style="text;html=1;strokeColor=none;fillColor=none;align=center;verticalAlign=middle;whiteSpace=wrap;rounded=0;" vertex="1" parent="1">
          <mxGeometry x="600" y="885" width="170" height="30" as="geometry" />
        </mxCell>
        <mxCell id="3yrh_qhIR_IRZOxZDyMh-46" value="products" style="text;html=1;strokeColor=none;fillColor=none;align=center;verticalAlign=middle;whiteSpace=wrap;rounded=0;" vertex="1" parent="1">
          <mxGeometry x="745" y="860" width="170" height="30" as="geometry" />
        </mxCell>
        <mxCell id="3yrh_qhIR_IRZOxZDyMh-47" value="products" style="text;html=1;strokeColor=none;fillColor=none;align=center;verticalAlign=middle;whiteSpace=wrap;rounded=0;" vertex="1" parent="1">
          <mxGeometry x="755" y="700" width="170" height="30" as="geometry" />
        </mxCell>
        <mxCell id="3yrh_qhIR_IRZOxZDyMh-49" value="" style="endArrow=classic;html=1;rounded=0;" edge="1" parent="1">
          <mxGeometry width="50" height="50" relative="1" as="geometry">
            <mxPoint x="546" y="750" as="sourcePoint" />
            <mxPoint x="546" y="809.9999999999998" as="targetPoint" />
          </mxGeometry>
        </mxCell>
      </root>
    </mxGraphModel>
  </diagram>
</mxfile>
